<svg xmlns="http://www.w3.org/2000/svg" width="20" height="20" viewBox="0 0 20 20"><defs><style>.a{fill:none;}.b{fill:#707070;}</style></defs><g transform="translate(-850 15)"><rect class="a" width="20" height="20" transform="translate(850 -15)"/><g transform="translate(-19.7 -152.5)"><path class="b" d="M878.911,152.013l6.828-6.828a.6.6,0,0,0,0-.964l-1.125-1.125a.6.6,0,0,0-.964,0l-5.221,5.221-2.329-2.33a.6.6,0,0,0-.964,0l-1.125,1.125a.6.6,0,0,0,0,.964l4.016,4.016a.694.694,0,0,0,.482.241C878.671,152.335,878.751,152.174,878.911,152.013Zm9.4-9.8V152.9a3.295,3.295,0,0,1-3.213,3.213H874.413A3.295,3.295,0,0,1,871.2,152.9V142.213A3.295,3.295,0,0,1,874.413,139H885.1a3.295,3.295,0,0,1,3.213,3.213Z" transform="translate(0)"/></g></g></svg>